<?xml version="1.0" standalone="no"?>
<!DOCTYPE svg PUBLIC "-//W3C//DTD SVG 20010904//EN"
 "http://www.w3.org/TR/2001/REC-SVG-20010904/DTD/svg10.dtd">
<svg version="1.0" xmlns="http://www.w3.org/2000/svg"
 width="362.000000pt" height="362.000000pt" viewBox="0 0 362.000000 362.000000"
 preserveAspectRatio="xMidYMid meet">
<metadata>
Created by potrace 1.11, written by Peter Selinger 2001-2013
</metadata>
<g transform="translate(0.000000,362.000000) scale(0.100000,-0.100000)"
fill="#000000" stroke="none">
<path d="M1934 2635 c-197 -59 -546 -342 -1129 -917 -110 -108 -201 -195 -203
-193 -5 5 114 230 203 385 335 580 337 584 325 636 -13 56 -62 81 -136 70 -83
-14 -97 -28 -266 -265 -309 -433 -459 -620 -645 -810 -35 -35 -66 -74 -69 -87
-9 -36 4 -64 31 -64 36 0 80 40 303 273 50 54 92 94 92 89 0 -5 -11 -31 -24
-59 -42 -86 -152 -354 -176 -428 -13 -38 -23 -89 -23 -112 1 -78 67 -159 146
-178 24 -6 34 0 86 51 32 33 121 138 198 234 291 364 496 593 706 787 67 62
236 198 304 244 26 18 50 35 53 38 10 12 70 51 70 47 0 -8 -62 -139 -180 -381
-133 -273 -200 -414 -200 -423 0 -4 -7 -20 -16 -37 -42 -81 -130 -383 -127
-437 0 -10 1 -27 2 -39 1 -12 16 -36 35 -55 29 -29 41 -34 81 -34 60 0 99 23
115 69 63 179 236 454 395 631 198 218 488 471 690 601 96 62 125 79 125 75 0
-3 -38 -61 -85 -130 -47 -68 -85 -126 -85 -129 0 -3 -18 -35 -40 -72 -90 -146
-191 -374 -224 -500 -42 -163 -19 -309 60 -389 67 -67 216 -103 332 -80 211
43 571 311 859 641 94 107 107 127 99 158 -5 20 -13 25 -38 25 -25 0 -43 -12
-92 -64 -347 -362 -499 -492 -680 -581 -105 -53 -173 -62 -256 -38 -72 21 -93
55 -87 143 11 161 128 383 362 685 348 449 326 418 320 450 -11 58 -79 105
-160 110 -116 8 -293 -74 -544 -254 -96 -69 -149 -111 -321 -258 -110 -94
-255 -216 -300 -253 l-54 -45 84 160 c46 88 94 177 107 197 12 21 23 39 23 41
0 2 23 44 51 93 71 123 129 244 129 270 0 72 -133 137 -226 109z"/>
</g>
</svg>
