<svg xmlns="http://www.w3.org/2000/svg" viewBox="0 0 338 338"><defs><style>.cls-1{fill:#f4d7ba;}.cls-2{fill:#f5f5f5;}.cls-3{fill:#020202;}.cls-4{fill:#010101;}.cls-5{fill:#5a4b3d;}.cls-6{fill:#453a30;}.cls-7{fill:#6f5e50;}.cls-8{fill:#625141;}.cls-9{fill:#53412c;}.cls-10{fill:#5a4d3f;}.cls-11{fill:#463425;}.cls-12{fill:#706152;}</style></defs><g id="Layer_2" data-name="Layer 2"><g id="Layer_1-2" data-name="Layer 1"><circle class="cls-1" cx="169" cy="169" r="169"/><path class="cls-2" d="M158,137a15.86,15.86,0,0,0,4.89,5.06c4.16,3.64,6.11,8.52,7.38,13.67a10.47,10.47,0,0,0,2.1,4.87c1.18,2.69-.35,5-1,7.5a6.14,6.14,0,0,0-.76,5.54,7,7,0,0,1,.17,1.29,7.53,7.53,0,0,0,1,3.73,7.65,7.65,0,0,1,0,4.27,96.68,96.68,0,0,1-7.81,19,48.78,48.78,0,0,1-5.21,7.61,91.45,91.45,0,0,1-6.39,7.39,79.39,79.39,0,0,1-19,12.39c-13,4.44-25.86,6.67-38.38-1.36h0c-11.8-7.44-18.74-18.1-21.49-31.75-1.24-6.17.19-12.13.43-18.18-1.63-5.14,1.63-9.25,2.91-13.77.78-1.51,1.61-3,2.33-4.55a22.46,22.46,0,0,0,3.85-6.67c2.52-.94,3.73-3.13,5.07-5.22,2-3.2,4.34-6.16,7.89-7.85,2.14-3.25,5.91-4.4,8.73-6.78,8.77-4.75,17.71-8.82,28.12-7.59,1.79.21,3.63,0,5.31.9,5.65,1.42,11.34,2.77,15.8,6.93C155.57,134.38,157.56,134.84,158,137Z"/><path class="cls-2" d="M170.08,175.34l-.07-1.25c-1.11-2.27-.14-4.21,1-6.12-1.5-2.49,1.57-4.32,1-6.69-1.15-1.51-.27-2.43,1-3.25,1.55-6.42,5.76-11.42,9.07-16.89a10.27,10.27,0,0,1,4-4.08c2.07-.3,3.47-1.72,4.95-3,3.58-3.45,8.28-4.32,12.84-5.39,1.57-.37,3.16-.74,4.75-1.09,3.52,0,7,0,10.56,0,2.51.65,5,1.28,7.53,2,5.42,1.83,10.73,3.89,15.24,7.56h0c2.83,2.14,6.17,3.7,8,7q3.54,4.47,7.07,9c11.54,17.87,14.74,36.76,7,57-2.26,7.67-6.37,13.79-14.06,16.95-7.34,3.9-14.86,7-23.42,7.07a50.48,50.48,0,0,1-25.09-6.75,57.3,57.3,0,0,0-5.44-2.37c-2-.26-2.93-1.88-4-3.27a21.82,21.82,0,0,0-6.05-5.87c-3.76-2.41-5.56-6.4-8-9.91-2.73-5.39-5.34-10.83-6.82-16.72-.52-2-1.14-4.09-.12-6.17,0-1.63,0-3.27,0-4.91C170,177.4,170.3,176.28,170.08,175.34Z"/><path class="cls-3" d="M138.69,183.16c.21-3.49,2.1-5.32,5.43-5.11a4.86,4.86,0,0,1,4.91,5.12c.06,3.43-2,5.39-5.23,5.34S138.65,186.54,138.69,183.16Z"/><path class="cls-4" d="M203.26,183.2c0,2.86-1.41,4.87-4.61,5-3.55.17-5.7-1.61-5.69-5.25,0-3.08,1.85-4.89,4.91-5C201.24,177.77,203.11,179.51,203.26,183.2Z"/><path class="cls-5" d="M166.39,288.75c3.65.14,7.36,0,10.64,2.05.34.23.45.47.33.7s-.23.34-.35.34a130.49,130.49,0,0,0-28.94-1.68c-.3-.2-.41-.42-.32-.64s.17-.35.26-.35a30.26,30.26,0,0,1,13-1C162.74,288.9,164.65,288.09,166.39,288.75Z"/><path class="cls-6" d="M145,291.85c-1.53.61-2.92,2.12-4.83.76.63-1.79,2.21-1.59,3.57-1.82C144.81,290.34,145.07,290.89,145,291.85Z"/><path class="cls-7" d="M191.11,296.56c-1.4.43-2.48-.31-3.74-1,1.72-1.59,2.81-1,3.63.8Z"/><path class="cls-8" d="M182,292.11a5.33,5.33,0,0,1,4.57,2.27c-2.11.2-3.45-.1-4.55-1.36q-.53-.28-.36-.6C181.72,292.21,181.84,292.11,182,292.11Z"/><path class="cls-9" d="M191.11,296.56l-.11-.2c1.4-.41,2.52.1,3.74,1.24C193.13,298,191.85,298.34,191.11,296.56Z"/><path class="cls-10" d="M145,291.85l-1.26-1.06,4.3-1.62q0,.49.06,1C147.43,291.45,146.2,291.65,145,291.85Z"/><path class="cls-11" d="M182,292.11c0,.3,0,.61,0,.91l-5-1.18c0-.35,0-.7,0-1,.32,0,.64-.08,1-.14Z"/><path class="cls-12" d="M166.39,288.75c-1.83.14-3.7.65-5.38-.59l4.78-.1A3.31,3.31,0,0,0,166.39,288.75Z"/></g></g></svg>